<?xml version="1.0" standalone="no"?>
<!DOCTYPE svg PUBLIC "-//W3C//DTD SVG 20010904//EN"
 "http://www.w3.org/TR/2001/REC-SVG-20010904/DTD/svg10.dtd">
<svg version="1.0" xmlns="http://www.w3.org/2000/svg"
 width="1024.000000pt" height="1024.000000pt" viewBox="0 0 1024.000000 1024.000000"
 preserveAspectRatio="xMidYMid meet">

<g transform="translate(0.000000,1024.000000) scale(0.100000,-0.100000)"
fill="#000000" stroke="none">
<path d="M2060 7415 l0 -1505 -210 0 -210 0 0 -1295 0 -1295 215 0 216 0 -1
-217 -1 -218 218 -2 218 -2 3 -215 2 -216 220 0 220 0 0 -215 0 -215 440 0
440 0 0 -220 0 -220 1345 0 1345 0 2 218 3 217 433 3 432 2 0 215 0 215 215 0
215 0 0 215 0 215 228 2 227 3 3 218 2 217 205 0 205 0 0 1295 0 1295 -205 0
-205 0 0 1505 0 1505 -450 0 -450 0 0 -205 0 -205 -220 0 -220 0 0 -215 0
-215 -220 0 -220 0 0 -220 0 -220 -1330 0 -1330 0 0 220 0 220 -220 0 -220 0
0 215 0 215 -215 0 -215 0 0 205 0 205 -455 0 -455 0 0 -1505z m890 860 l0
-215 225 0 225 0 0 -215 0 -215 215 0 215 0 2 -217 3 -218 1330 0 1330 0 3
218 2 217 220 0 220 0 0 215 0 215 225 0 225 0 0 215 0 215 215 0 215 0 2
-1292 3 -1293 223 -3 222 -2 0 -1285 0 -1285 -225 0 -225 0 0 -215 0 -215
-217 -2 -218 -3 -5 -220 -5 -220 -427 -3 -428 -2 0 -220 0 -220 -1340 0 -1340
0 0 220 0 220 -435 0 -435 0 -2 222 -3 223 -220 2 c-146 1 -220 5 -221 12 -1
6 -2 103 -3 216 l-1 205 -220 0 -220 0 0 1285 0 1285 220 0 220 0 0 1295 0
1295 215 0 215 0 0 -215z"/>
<path d="M3390 5490 l0 -420 443 2 442 3 3 418 2 417 -445 0 -445 0 0 -420z"/>
<path d="M6060 5490 l0 -420 440 0 440 0 0 420 0 420 -440 0 -440 0 0 -420z"/>
<path d="M4720 4620 l0 -430 -225 0 -225 0 0 -215 0 -215 225 0 225 0 0 -215
0 -215 -230 0 -230 0 2 -222 3 -223 230 0 230 0 3 218 2 217 665 0 665 0 0
220 0 220 -350 0 -350 0 0 215 0 215 125 0 125 0 0 430 0 430 -445 0 -445 0 0
-430z m250 -645 l0 -215 -104 0 c-57 0 -111 3 -120 6 -14 5 -16 34 -16 215 l0
209 120 0 120 0 0 -215z"/>
<path d="M2519 4616 c-2 -2 -3 -99 -1 -215 l3 -211 659 0 660 0 0 215 0 215
-658 0 c-362 0 -661 -2 -663 -4z"/>
<path d="M6520 4405 l0 -215 650 0 650 0 0 215 0 215 -650 0 -650 0 0 -215z"/>
<path d="M2950 3540 l0 -220 445 0 445 0 0 220 0 220 -445 0 -445 0 0 -220z"/>
<path d="M6520 3540 l0 -220 440 0 440 0 0 220 0 220 -440 0 -440 0 0 -220z"/>
</g>
</svg>
